<svg id="Layer_1" data-name="Layer 1" xmlns="http://www.w3.org/2000/svg" viewBox="0 0 771.33 360"><defs><style>.cls-1,.cls-2{fill:#4495d1;}.cls-1,.cls-3{fill-rule:evenodd;}.cls-3,.cls-4{fill:#194e83;}</style></defs><path class="cls-1" d="M73.22,93.72h79.65v79.65H73.22Z"/><path class="cls-2" d="M304.3,186.16h4.12v76h40.79v3.66H304.3Z"/><path class="cls-2" d="M413.67,244.21H369.35c-.45,1.26-9.16,21.94-9.16,21.94h-4.53s10.14-24.23,10.6-25.26l23.08-54.73h4.23l23.09,54.73c.45,1,10.65,25.26,10.65,25.26h-4.52Zm-42.95-3.54H412.2L391.52,190.5Z"/><path class="cls-2" d="M435.62,186.16h33.71c10.06,0,15.2,5,15.2,14.17v12.34c0,5.6-2.4,9.6-7.2,11.43,5.83,1.25,8.92,5.48,8.92,11.77v15.77c0,9.25-5.26,14.17-15.2,14.17H435.62Zm4.12,3.77v32.45h30.51c6.63,0,10.17-3.31,10.17-9.14V200.1c0-6.74-3.89-10.17-11.09-10.17Zm0,36.22V262h31.19c7.32,0,11.09-3.43,11.09-10.29V235.41c0-6.06-3.43-9.26-10.17-9.26Z"/><path class="cls-2" d="M498.06,198.73c0-8.46,5.38-13,15.43-13h18.17c9.94,0,15.43,4.57,15.43,13v9.71H543V198.5c0-5.95-4-9.14-11.43-9.14H513.61c-7.43,0-11.43,3.19-11.43,9.14v10.28c0,4.8,1.37,7.54,5.83,8.8l31,8.57c6,1.72,8.68,6.17,8.68,11.32v15.77c0,8.57-5.48,13-15.43,13H512.81c-10.06,0-15.43-4.45-15.43-13v-9h4.11v9.26c0,5.94,4,9.14,11.43,9.14h19.2c8.23,0,11.43-3.77,11.43-9.14V237.92c0-4.22-2.29-7-5.72-7.88l-31.2-8.8c-4.22-1.14-8.57-4-8.57-12.23Z"/><path class="cls-3" d="M178.42,93.72H165.65v79.65h12.77Z"/><path class="cls-3" d="M165.65,160.6v12.77h79.66V160.6Z"/><path class="cls-3" d="M140.1,265.81h12.77V186.15H140.1Z"/><path class="cls-3" d="M152.87,198.92V186.15H73.22v12.77Z"/><path class="cls-4" d="M304.3,93.72h17.48v79.65H304.3Z"/><path class="cls-4" d="M353.09,127.55v45.82H336.64V93.72h16l24.91,45.71V93.72H394v79.65H378.12Z"/><path class="cls-4" d="M403.11,93.72h17.48L432,140.15l11.43-46.43h17l-19.54,79.65H422.42Z"/><path class="cls-4" d="M469.58,93.72h50.51v15h-33V125H517v14.74H487.06V158.4h33.83v15H469.58Z"/><path class="cls-4" d="M549.23,127.55v45.82H532.77V93.72h16l24.92,45.71V93.72h16.45v79.65H574.26Z"/><path class="cls-4" d="M605,93.72h17.48v79.65H605Z"/><path class="cls-4" d="M630,173.37l24.37-79.65h19.48l24.23,79.65h-15.6L677.58,157H650.77l-5,16.34Zm25.22-30.85h18.06l-9.14-29.6Z"/></svg>